<?xml version="1.0" standalone="no"?>
<!DOCTYPE svg PUBLIC "-//W3C//DTD SVG 1.1//EN" "http://www.w3.org/Graphics/SVG/1.1/DTD/svg11.dtd" >
<svg xmlns="http://www.w3.org/2000/svg">
<metadata></metadata>
<defs>
<font id="swiss_721light" horiz-adv-x="1024" >
<font-face units-per-em="2048" ascent="1638" descent="-410" />
<missing-glyph horiz-adv-x="544" />
<glyph unicode="&#xfb01;" horiz-adv-x="958" d="M41 963v100h156v194q0 123 61 176.5t191 53.5q29 0 63 -6v-111q-20 2 -36.5 5t-31.5 3q-72 0 -98.5 -30.5t-26.5 -102.5v-182h193v-100h-193v-963h-122v963h-156zM686 0v1063h123v-1063h-123zM686 1288v185h123v-185h-123z" />
<glyph unicode="&#xfb02;" horiz-adv-x="958" d="M41 963v100h156v194q0 123 61 176.5t191 53.5q29 0 63 -6v-111q-20 2 -36.5 5t-31.5 3q-72 0 -98.5 -30.5t-26.5 -102.5v-182h193v-100h-193v-963h-122v963h-156zM686 0v1473h123v-1473h-123z" />
<glyph horiz-adv-x="0" />
<glyph unicode="&#xd;" horiz-adv-x="544" />
<glyph unicode=" "  horiz-adv-x="544" />
<glyph unicode="&#x09;" horiz-adv-x="544" />
<glyph unicode="&#xa0;" horiz-adv-x="544" />
<glyph unicode="!" horiz-adv-x="638" d="M252 0v182h135v-182h-135zM252 938v535h135v-535l-27 -578h-79z" />
<glyph unicode="&#x22;" horiz-adv-x="550" d="M100 881v553h86v-553h-86zM365 881v553h86v-553h-86z" />
<glyph unicode="#" horiz-adv-x="1574" d="M129 494l31 90h336l100 282h-360l28 90h365l176 498h110l-174 -498h271l176 498h110l-174 -498h322l-31 -90h-323l-101 -282h348l-30 -90h-351l-174 -494h-112l176 494h-270l-179 -494h-110l174 494h-334zM610 584h269l100 282h-270z" />
<glyph unicode="$" horiz-adv-x="1089" d="M59 410v10h121q12 -311 324 -352v596l-92 26q-164 47 -241 128t-77 224q0 176 105.5 277.5t304.5 112.5v122h94v-122q180 -6 281.5 -102.5t103.5 -262.5h-121q-6 117 -73.5 182.5t-190.5 73.5v-551l51 -12q197 -53 290 -145.5t93 -252.5q0 -180 -112.5 -286.5 t-321.5 -116.5v-160h-94v160q-444 37 -445 451zM215 1055q0 -104 57.5 -156.5t176.5 -85.5l55 -14v524q-139 -10 -214 -78.5t-75 -189.5zM598 68q150 12 231.5 83.5t81.5 196.5q0 115 -62.5 179.5t-195.5 99.5l-55 14v-573z" />
<glyph unicode="%" horiz-adv-x="1658" d="M76 1053q0 72 25.5 133t71.5 107t107.5 72t133.5 26t133 -26t107 -72t73 -107.5t27 -132.5q0 -72 -27 -133.5t-73 -107.5t-108.5 -72.5t-131.5 -26.5q-72 0 -133.5 26.5t-106.5 72.5t-71.5 107.5t-26.5 133.5zM195 1051q0 -47 17 -87t46 -69t69 -46.5t87 -17.5 q45 0 86 17.5t70.5 46.5t47 69t17.5 87q0 45 -17.5 86t-47 70.5t-69.5 47t-87 17.5t-87 -17.5t-70 -47t-46 -70.5t-16 -86zM317 -41l920 1473h104l-919 -1473h-105zM905 340q0 72 26.5 133.5t73 107.5t108 71.5t132.5 25.5q72 0 133.5 -25.5t107.5 -71.5t71.5 -107.5 t25.5 -133.5t-26.5 -133.5t-71.5 -107.5t-107.5 -72.5t-132.5 -26.5q-72 0 -133 26.5t-107.5 72.5t-73 107.5t-26.5 133.5zM1024 340q0 -47 17.5 -87t47 -69.5t69.5 -47t87 -17.5q45 0 86 17.5t70 47t46 69.5t17 87q0 45 -16 86t-46 69.5t-70 46t-87 17.5t-87 -17.5 t-69.5 -46t-47 -69.5t-17.5 -86z" />
<glyph unicode="&#x26;" horiz-adv-x="1351" d="M111 385q0 313 348 467q-78 88 -118 166t-40 162q0 61 23.5 114.5t65.5 93t100.5 62.5t127.5 23q147 0 233.5 -80t86.5 -215q0 -121 -78 -204t-209 -153l365 -430q25 55 40 122t15 146h121q-2 -109 -23.5 -200.5t-68.5 -171.5l243 -287h-167l-148 176 q-164 -217 -469 -217q-100 0 -183 32t-141.5 89t-91 135t-32.5 170zM250 399q0 -145 86 -232t225 -87q244 0 385 192l-416 494q-281 -137 -280 -367zM440 1178q0 -61 34 -126t106 -143q115 57 167 120t52 147t-46 130t-137 46q-176 0 -176 -174z" />
<glyph unicode="'" horiz-adv-x="284" d="M100 881v553h86v-553h-86z" />
<glyph unicode="(" horiz-adv-x="647" d="M193 528q0 547 325 945h98q-137 -188 -217 -419t-80 -526q0 -270 72 -499.5t225 -444.5h-98q-326 397 -325 944z" />
<glyph unicode=")" horiz-adv-x="647" d="M31 -416q154 215 225.5 444.5t71.5 499.5q0 272 -72 502t-225 443h98q326 -397 326 -945q0 -547 -326 -944h-98z" />
<glyph unicode="*" d="M137 1159l35 115l291 -107v306h94v-306l289 103l41 -107l-303 -84l204 -250l-96 -69l-182 266l-180 -264l-94 67l200 250z" />
<glyph unicode="+" horiz-adv-x="1705" d="M254 569v80h559v570h80v-570h559v-80h-559v-569h-80v569h-559z" />
<glyph unicode="," horiz-adv-x="544" d="M205 0v182h135v-245q0 -88 -29.5 -139.5t-105.5 -82.5v78q35 25 49 56.5t14 78.5v72h-63z" />
<glyph unicode="-" horiz-adv-x="669" d="M80 473v121h495v-121h-495z" />
<glyph unicode="." horiz-adv-x="544" d="M205 0v182h135v-182h-135z" />
<glyph unicode="/" horiz-adv-x="598" d="M-27 -172l551 1683h99l-549 -1683h-101z" />
<glyph unicode="0" horiz-adv-x="1089" d="M76 696q0 365 120.5 550.5t348.5 185.5q227 0 349 -186.5t122 -551.5t-122 -550t-349 -185t-348 186t-121 551zM215 696q0 -313 80 -464.5t250 -151.5t251 150.5t81 465.5q0 313 -81 464t-251 151t-250 -151t-80 -464z" />
<glyph unicode="1" horiz-adv-x="1089" d="M190 1061v88h9q176 0 264 66.5t98 216.5h119v-1432h-135v1141q-49 -43 -131 -61.5t-203 -18.5h-21z" />
<glyph unicode="2" horiz-adv-x="1089" d="M68 43q0 162 87 281.5t265 230.5q117 72 211 125t147 111q47 51 67.5 102t20.5 121q0 143 -80.5 220t-222.5 77q-158 0 -241.5 -89t-83.5 -266h-136q6 229 127 352.5t338 123.5q100 0 180 -29t136.5 -83t87 -131t30.5 -171q0 -90 -27.5 -160t-86.5 -135 q-66 -72 -163 -126t-214 -122q-145 -86 -221 -168t-86 -192h790v-115h-923q0 10 -1 21.5t-1 21.5z" />
<glyph unicode="3" horiz-adv-x="1089" d="M72 406v4h139q2 -162 85 -252t232 -90q160 0 245 85t85 238q0 152 -88 223.5t-272 71.5h-30.5t-31.5 -2v104q14 0 26.5 -1t24.5 -1q166 0 251 70t85 205q0 117 -75.5 189.5t-202.5 72.5q-141 0 -219 -82t-82 -235h-127q8 203 120.5 314.5t309.5 111.5q190 0 297.5 -101.5 t107.5 -269.5q0 -217 -198 -313q119 -35 181 -127.5t62 -233.5q0 -199 -122.5 -313.5t-337.5 -114.5q-217 0 -341 118t-124 329z" />
<glyph unicode="4" horiz-adv-x="1089" d="M76 354v109l606 928h145v-928h189v-109h-189v-354h-135v354h-616zM199 463h493v758z" />
<glyph unicode="5" horiz-adv-x="1089" d="M78 369h133q6 -137 92 -219t234 -82q152 0 236.5 96t84.5 266q0 174 -88 272.5t-242 98.5q-100 0 -173.5 -37t-118.5 -105h-113l108 732h701v-109h-604l-70 -465q104 92 293 92q100 0 183 -33.5t141.5 -95t90 -148.5t31.5 -196q0 -111 -32.5 -198.5t-93 -150 t-146.5 -95.5t-193 -33q-203 0 -323.5 109.5t-130.5 300.5z" />
<glyph unicode="6" horiz-adv-x="1089" d="M82 627q0 399 135 603t387 204q166 0 272.5 -98.5t122.5 -266.5h-125q-16 123 -88.5 189.5t-189.5 66.5q-178 0 -273.5 -161t-101.5 -476q51 106 143.5 161.5t221.5 55.5q98 0 177 -32.5t135 -95t87 -150.5t31 -199q0 -109 -31 -195t-88 -147t-139 -94t-185 -33 q-240 0 -365.5 169t-125.5 499zM250 442q0 -172 85 -273t228 -101q154 0 234 91t80 263q0 182 -81 278.5t-229 96.5q-70 0 -128 -27t-100 -74t-65.5 -112.5t-23.5 -141.5z" />
<glyph unicode="7" horiz-adv-x="1089" d="M121 1270v121h891v-125q-229 -279 -367.5 -590t-193.5 -676h-144q59 358 199.5 674.5t367.5 595.5h-753z" />
<glyph unicode="8" horiz-adv-x="1089" d="M82 391q0 129 65.5 225.5t182.5 141.5q-195 102 -195 305q0 82 29 150.5t81 116.5t128 75t172 27q94 0 171 -27t129 -75t80.5 -116.5t28.5 -150.5q0 -203 -194 -305q117 -45 182.5 -141.5t65.5 -225.5q0 -98 -32 -178t-91.5 -136.5t-145.5 -87t-194 -30.5 q-109 0 -195 30.5t-145.5 87t-91 136.5t-31.5 178zM221 387q0 -70 23.5 -128t66.5 -101t102.5 -66.5t131.5 -23.5t131 23.5t102 67.5t66.5 104.5t23.5 133.5q0 139 -86 220t-237 81q-154 0 -239 -80.5t-85 -230.5zM274 1059q0 -117 70 -184.5t201 -67.5t200.5 67.5 t69.5 184.5q0 123 -70.5 193.5t-199.5 70.5t-200 -70.5t-71 -193.5z" />
<glyph unicode="9" horiz-adv-x="1089" d="M70 963q0 106 30.5 193t88 148.5t139.5 94.5t184 33q240 0 366 -168t126 -498q0 -399 -134.5 -603t-388.5 -204q-172 0 -275.5 94t-119.5 269h125q18 -123 89 -188.5t192 -65.5q356 0 372 634q-51 -106 -143 -161.5t-221 -55.5q-98 0 -177 33t-135.5 95.5t-87 150.5 t-30.5 199zM209 969q0 -182 81 -278.5t228 -96.5q70 0 128.5 26.5t100 73.5t65.5 111.5t24 142.5q0 172 -85 273.5t-229 101.5q-154 0 -233.5 -91t-79.5 -263z" />
<glyph unicode=":" horiz-adv-x="591" d="M229 0v182h136v-182h-136zM229 860v182h136v-182h-136z" />
<glyph unicode=";" horiz-adv-x="591" d="M229 0v182h136v-245q0 -88 -31 -139.5t-105 -82.5v78q35 25 48.5 56.5t13.5 78.5v72h-62zM229 860v182h136v-182h-136z" />
<glyph unicode="&#x3c;" horiz-adv-x="1705" d="M264 580v61l1178 483v-90l-1045 -424l1045 -424v-88z" />
<glyph unicode="=" horiz-adv-x="1705" d="M254 389v80h1198v-80h-1198zM254 752v79h1198v-79h-1198z" />
<glyph unicode="&#x3e;" horiz-adv-x="1705" d="M264 98v88l1045 424l-1045 424v90l1178 -483v-61z" />
<glyph unicode="?" horiz-adv-x="1005" d="M55 1057q6 223 123 338.5t336 115.5q199 0 311.5 -102t112.5 -272q0 -96 -36 -170t-114 -146q-53 -49 -98 -89t-77.5 -80t-51 -84t-18.5 -99v-109h-121v125q0 51 9 91t27.5 74t44 64.5t60.5 65.5q45 47 88 86t76 78t52.5 83t19.5 99q0 127 -77 196t-212 69 q-315 0 -315 -334h-140zM416 0v182h135v-182h-135z" />
<glyph unicode="@" horiz-adv-x="2048" d="M121 522q0 164 50 308.5t148 263.5q143 176 344 266t451 90q166 0 309.5 -45t243.5 -123q129 -98 194.5 -226t65.5 -278q0 -172 -63.5 -310t-180.5 -230q-68 -53 -146.5 -82t-158.5 -29q-193 0 -192 145q0 10 1 19.5t3 19.5q-49 -90 -125 -137t-166 -47q-154 0 -233.5 83 t-79.5 243q0 117 36.5 216t99 171.5t146.5 114.5t179 42q195 0 256 -170l61 129h80l-137 -553q-20 -76 -21 -108q0 -43 30 -67.5t87 -24.5q98 0 203 76q49 37 90 89t70.5 115.5t46 135t16.5 149.5q0 135 -51.5 246.5t-146.5 191.5t-229 124t-298 44q-336 0 -569 -192 q-309 -256 -310 -672q0 -162 57.5 -294t163 -226t256 -145.5t336.5 -51.5q160 0 322 49t301 144l29 -45q-293 -219 -648 -220q-377 0 -620 185q-301 227 -301 616zM690 446q0 -117 57.5 -181t159.5 -64q111 0 196 71.5t116 194.5l63 254q-23 98 -81 150.5t-152 52.5 q-76 0 -141.5 -37t-114 -101.5t-76 -151.5t-27.5 -188z" />
<glyph unicode="A" horiz-adv-x="1261" d="M-10 0l559 1473h162l559 -1473h-142l-165 451h-664l-168 -451h-141zM344 571h571l-286 758z" />
<glyph unicode="B" horiz-adv-x="1310" d="M164 0v1473h487q106 0 186.5 -11.5t143.5 -48.5q86 -47 132 -130t46 -187q0 -111 -57.5 -194t-161.5 -124q135 -29 211 -130t76 -251q0 -129 -60.5 -225t-171.5 -139q-53 -23 -158.5 -28t-265.5 -5h-407zM299 121h397q100 0 174 12t122 45t71.5 87t23.5 138 q0 299 -380 299h-408v-581zM299 823h315q102 0 179 11.5t127.5 41t75 81t24.5 130.5q0 80 -24.5 131.5t-74 81t-123 41t-171.5 11.5h-328v-529z" />
<glyph unicode="C" horiz-adv-x="1425" d="M100 739q0 182 46.5 325.5t130 243t202.5 151.5t266 52q125 0 228.5 -33.5t177.5 -95t116 -147.5t48 -193h-133q-16 162 -133 255.5t-304 93.5q-236 0 -370.5 -166t-134.5 -484q0 -160 35.5 -282.5t102 -206.5t161 -128t211.5 -44q199 0 315.5 105.5t130.5 295.5h133 q-16 -246 -170.5 -384t-417.5 -138q-147 0 -265 53.5t-202 152.5t-129 244.5t-45 329.5z" />
<glyph unicode="D" horiz-adv-x="1427" d="M164 0v1473h346h100q131 0 237.5 -12.5t192.5 -67.5q135 -86 207 -251t72 -403q0 -256 -79 -425t-230 -251q-80 -43 -188.5 -53t-252.5 -10h-405zM299 121h285q123 0 215 8t157 47q223 133 224 559q0 412 -213 551q-72 47 -170.5 56.5t-227.5 9.5h-270v-1231z" />
<glyph unicode="E" horiz-adv-x="1239" d="M164 0v1473h964v-121h-829v-535h758v-121h-758v-575h854v-121h-989z" />
<glyph unicode="F" horiz-adv-x="1163" d="M164 0v1473h932v-121h-797v-533h723v-121h-723v-698h-135z" />
<glyph unicode="G" horiz-adv-x="1533" d="M102 739q0 182 47.5 325.5t135.5 243t210.5 151.5t274.5 52q262 0 420 -122.5t190 -344.5h-139q-31 162 -154.5 254.5t-314.5 92.5q-254 0 -392 -166t-138 -484q0 -154 35.5 -276.5t103.5 -207.5t163 -131t212 -46q244 0 379 143.5t135 405.5v6h-486v121h615v-756h-109 l-14 260q-68 -141 -202 -221t-312 -80q-152 0 -273.5 53.5t-207.5 153.5t-132.5 245.5t-46.5 327.5z" />
<glyph unicode="H" horiz-adv-x="1441" d="M164 0v1473h135v-639h844v639h135v-1473h-135v713h-844v-713h-135z" />
<glyph unicode="I" horiz-adv-x="485" d="M174 0v1473h135v-1473h-135z" />
<glyph unicode="J" horiz-adv-x="985" d="M45 346v107h135v-95q0 -278 246 -278h2q147 0 206.5 72.5t59.5 236.5v1084h135v-1115q0 -197 -104 -298t-301 -101q-379 0 -379 387z" />
<glyph unicode="K" horiz-adv-x="1308" d="M164 0v1473h135v-781l760 781h174l-598 -611l668 -862h-168l-590 772l-246 -252v-520h-135z" />
<glyph unicode="L" horiz-adv-x="1064" d="M164 0v1473h135v-1352h756v-121h-891z" />
<glyph unicode="M" horiz-adv-x="1669" d="M162 0v1473h190l486 -1297l477 1297h190v-1473h-135v1284l-469 -1284h-125l-479 1284v-1284h-135z" />
<glyph unicode="N" horiz-adv-x="1441" d="M164 0v1473h149l828 -1264v1264h135v-1473h-150l-827 1264v-1264h-135z" />
<glyph unicode="O" horiz-adv-x="1550" d="M100 735q0 180 48.5 324.5t136.5 245t212 153.5t277 53q154 0 279 -53t213 -153.5t136 -245t48 -324.5q0 -182 -48 -325.5t-136 -243.5t-213 -153.5t-279 -53.5t-277.5 53.5t-211.5 153.5t-136.5 243.5t-48.5 325.5zM240 735q0 -156 38.5 -277.5t108.5 -205.5t168 -128 t219 -44t219.5 44t169 128t109.5 206t39 277q0 156 -39 278t-109.5 206t-169 128t-219.5 44q-119 0 -217 -44t-169 -129t-109.5 -207t-38.5 -276z" />
<glyph unicode="P" horiz-adv-x="1236" d="M164 0v1473h514q483 0 483 -414q0 -215 -135 -317.5t-414 -102.5h-313v-639h-135zM299 760h315q209 0 308.5 67.5t99.5 233.5q0 152 -85 221.5t-265 69.5h-373v-592z" />
<glyph unicode="Q" horiz-adv-x="1550" d="M100 735q0 180 48.5 324.5t136.5 245t212 153.5t277 53q154 0 279 -53t213 -153.5t136 -245t48 -324.5q0 -397 -219 -598l186 -151l-74 -95l-210 168q-131 -100 -359 -100q-154 0 -277.5 53.5t-211.5 153.5t-136.5 243.5t-48.5 325.5zM240 735q0 -156 38.5 -277.5 t109.5 -205.5t172.5 -128t225.5 -44q141 0 244 63l-174 142l74 94l203 -162q178 166 178 518q0 156 -39 278t-109.5 206t-169 128t-219.5 44q-119 0 -217 -44t-169 -129t-109.5 -207t-38.5 -276z" />
<glyph unicode="R" horiz-adv-x="1325" d="M164 0v1473h491q117 0 210 -8.5t171 -51.5q86 -49 133.5 -135t47.5 -197q0 -137 -60.5 -229t-177.5 -133q57 -18 91 -48t52.5 -72t26.5 -97.5t14 -124.5l19 -221q8 -102 47 -136v-20h-150q-25 45 -32 152l-17 194q-6 94 -20.5 154.5t-46 96.5t-87 49t-147.5 13h-430v-659 h-135zM299 780h391q201 0 294 67.5t93 229.5q0 72 -28.5 130.5t-81.5 92.5q-53 37 -123 44.5t-162 7.5h-383v-572z" />
<glyph unicode="S" horiz-adv-x="1241" d="M92 436v10h139q0 -174 106.5 -270t305.5 -96q176 0 271.5 78t95.5 213q0 72 -19.5 121t-61.5 83.5t-106.5 59t-154.5 47.5l-140 35q-102 27 -177 58.5t-125 77.5t-74.5 109.5t-24.5 153.5q0 88 34 161t96 125t151.5 80.5t201.5 28.5q233 0 362.5 -117.5t133.5 -330.5 h-139q-2 160 -95.5 244t-267.5 84q-164 0 -251 -73t-87 -206q0 -104 59.5 -161.5t188.5 -90.5l172 -43q119 -31 207 -67.5t144.5 -87t84 -118t27.5 -159.5q0 -98 -35 -177t-100.5 -134.5t-159.5 -85t-213 -29.5q-266 0 -407.5 124t-141.5 353z" />
<glyph unicode="T" horiz-adv-x="1089" d="M18 1352v121h1053v-121h-459v-1352h-135v1352h-459z" />
<glyph unicode="U" horiz-adv-x="1427" d="M154 526v947h135v-928q0 -240 97 -352.5t327 -112.5q229 0 327.5 112.5t98.5 352.5v928h135v-947q0 -567 -561 -567q-559 0 -559 567z" />
<glyph unicode="V" horiz-adv-x="1163" d="M-2 1473h141l445 -1301l444 1301h137l-510 -1473h-145z" />
<glyph unicode="W" horiz-adv-x="1759" d="M12 1473h133l328 -1270l326 1270h166l321 -1270l332 1270h129l-387 -1473h-148l-333 1309l-340 -1309h-146z" />
<glyph unicode="X" horiz-adv-x="1202" d="M23 0l493 758l-477 715h160l395 -603l391 603h158l-473 -719l510 -754h-162l-424 639l-412 -639h-159z" />
<glyph unicode="Y" horiz-adv-x="1146" d="M-14 1473h155l432 -697l433 697h155l-520 -826v-647h-135v647z" />
<glyph unicode="Z" horiz-adv-x="1165" d="M35 0v125l911 1227h-842v121h1010v-117l-919 -1235h933v-121h-1093z" />
<glyph unicode="[" horiz-adv-x="675" d="M246 -410v1883h372v-101h-249v-1681h249v-101h-372z" />
<glyph unicode="\" horiz-adv-x="598" d="M-27 1511h101l549 -1683h-99z" />
<glyph unicode="]" horiz-adv-x="675" d="M57 -309h250v1681h-250v101h373v-1883h-373v101z" />
<glyph unicode="^" horiz-adv-x="2048" d="M424 901l539 557h118l541 -557h-125l-473 469l-475 -469h-125z" />
<glyph unicode="_" d="M0 -403h1024v-80h-1024v80z" />
<glyph unicode="`" d="M276 1550h152l209 -350h-92z" />
<glyph unicode="a" horiz-adv-x="1097" d="M84 281q0 188 170 266q86 39 181 47t202 18q55 12 92 19.5t57.5 20t28.5 35t8 63.5q0 121 -58 176t-206 55q-289 0 -301 -236h-121q4 158 114.5 251.5t307.5 93.5q193 0 291 -81t98 -241v-580q0 -53 10.5 -75.5t65.5 -22.5h17.5t27.5 2v-92q-29 -6 -51.5 -8t-36.5 -2 q-152 0 -152 147v17q-168 -180 -393 -181q-164 0 -258 84t-94 224zM211 283q0 -92 64.5 -146.5t175.5 -54.5q82 0 151.5 22.5t118.5 64.5t76.5 102.5t27.5 138.5l-2 149q-68 -27 -163 -36t-211 -15q-238 -63 -238 -225z" />
<glyph unicode="b" horiz-adv-x="1181" d="M137 0v1473h123v-599q119 215 373 216q106 0 193 -38t148.5 -110t95.5 -176t34 -236q0 -133 -34 -236.5t-96.5 -175t-151.5 -109.5t-197 -38q-123 0 -216.5 54.5t-148.5 158.5v-184h-123zM254 530q0 -215 95 -332.5t265 -117.5q174 0 268.5 115.5t94.5 334.5t-96.5 335 t-266.5 116q-172 0 -266 -115t-94 -336z" />
<glyph unicode="c" horiz-adv-x="1056" d="M84 524q0 133 34 238.5t95 178.5t148.5 111t195.5 38q90 0 165 -27t130 -75t88 -114.5t37 -148.5h-119q-16 117 -98 186.5t-203 69.5q-78 0 -141.5 -29.5t-108.5 -87t-70.5 -140.5t-25.5 -189q0 -217 96 -335t252 -118q123 0 206 74.5t103 210.5h123q-16 -184 -134 -289 t-308 -105q-106 0 -192.5 38t-146.5 108.5t-93 173t-33 231.5z" />
<glyph unicode="d" horiz-adv-x="1189" d="M86 530q0 131 34 235.5t96.5 176.5t149.5 110t193 38q252 0 367 -211v594h123v-1473h-123v180q-123 -209 -375 -209q-104 0 -190.5 38t-147.5 109.5t-94 175t-33 236.5zM213 530q0 -217 96.5 -333.5t265.5 -116.5q174 0 267.5 114.5t93.5 335.5q0 219 -94 335t-267 116 q-174 0 -268 -116t-94 -335z" />
<glyph unicode="e" horiz-adv-x="1085" d="M84 526q0 270 125 417t342 147q213 0 333 -139.5t120 -401.5v-41h-793v-6q0 -201 95 -311.5t249 -110.5q125 0 209 65.5t102 182.5h123q-20 -162 -139 -259.5t-303 -97.5q-217 0 -340 144.5t-123 410.5zM211 608h666q-8 178 -96.5 275.5t-231.5 97.5t-235.5 -98.5 t-102.5 -274.5z" />
<glyph unicode="f" horiz-adv-x="544" d="M41 963v100h156v194q0 123 61 176.5t191 53.5q29 0 63 -6v-111q-20 2 -36.5 5t-31.5 3q-72 0 -98.5 -30.5t-26.5 -102.5v-182h193v-100h-193v-963h-122v963h-156z" />
<glyph unicode="g" horiz-adv-x="1185" d="M86 530q0 131 34 234.5t95 176.5t148.5 111t193.5 38q246 0 369 -211v184h123v-1008q0 -246 -127 -368.5t-377 -122.5q-188 0 -302 85t-124 226h127q10 -96 86 -149.5t211 -53.5q383 0 383 379v131q-125 -211 -369 -211q-109 0 -196 38t-148 109.5t-94 175t-33 236.5z M213 530q0 -217 98.5 -333.5t263.5 -116.5q168 0 264.5 115.5t96.5 334.5t-95.5 335t-265.5 116q-172 0 -267 -115t-95 -336z" />
<glyph unicode="h" horiz-adv-x="1107" d="M137 0v1473h123v-576q121 193 352 193q109 0 192 -40t126 -110q33 -53 38 -124t5 -169v-647h-123v645q0 86 -9.5 148.5t-38 104.5t-79.5 62.5t-135 20.5q-147 0 -237.5 -94t-90.5 -260v-627h-123z" />
<glyph unicode="i" horiz-adv-x="421" d="M150 0v1063h122v-1063h-122zM150 1288v185h122v-185h-122z" />
<glyph unicode="j" horiz-adv-x="446" d="M20 -322q14 -2 25.5 -4t22.5 -2q70 0 94 32t24 103v1256h123v-1270q0 -117 -48 -173t-165 -56q-16 0 -34.5 2t-41.5 6v106zM186 1288v185h123v-185h-123z" />
<glyph unicode="k" horiz-adv-x="991" d="M137 0v1473h123v-926l531 516h157l-401 -389l450 -674h-141l-395 592l-201 -193v-399h-123z" />
<glyph unicode="l" horiz-adv-x="421" d="M150 0v1473h122v-1473h-122z" />
<glyph unicode="m" horiz-adv-x="1708" d="M137 0v1063h115v-176q53 98 140 150.5t198 52.5q121 0 198.5 -54.5t104.5 -154.5q53 104 140 156.5t202 52.5q344 0 344 -349v-741h-123v731q0 129 -51 189.5t-174 60.5q-143 0 -227 -87t-84 -228v-666h-123v719q0 262 -224 262q-141 0 -227 -89t-86 -235v-657h-123z" />
<glyph unicode="n" horiz-adv-x="1103" d="M137 0v1063h119v-170q119 197 352 197q111 0 194 -39t126 -111q31 -49 37 -112.5t6 -149.5v-678h-123v664q0 80 -11.5 140t-40 99t-79.5 58.5t-133 19.5q-147 0 -235.5 -94t-88.5 -260v-627h-123z" />
<glyph unicode="o" horiz-adv-x="1142" d="M84 530q0 268 127 414t360 146t361.5 -145.5t128.5 -414.5q0 -268 -128 -412.5t-362 -144.5q-233 0 -360 144.5t-127 412.5zM211 530q0 -219 95 -333.5t265 -114.5q172 0 267.5 114.5t95.5 333.5t-95.5 335t-267.5 116q-170 0 -265 -116t-95 -335z" />
<glyph unicode="p" horiz-adv-x="1187" d="M141 -428v1491h123v-191q61 111 152.5 164.5t220.5 53.5q109 0 196 -38t148 -110t94 -176t33 -236q0 -133 -34 -236.5t-96.5 -175t-150.5 -109.5t-196 -38q-242 0 -367 213v-612h-123zM260 530q0 -215 95.5 -332.5t262.5 -117.5q172 0 267.5 114.5t95.5 335.5 q0 219 -95 335t-268 116q-172 0 -265 -115t-93 -336z" />
<glyph unicode="q" horiz-adv-x="1189" d="M84 530q0 133 34 236.5t95 175.5t148.5 110t195.5 38q244 0 365 -211v184h122v-1491h-122v618q-117 -219 -369 -219q-106 0 -193.5 38t-148.5 109.5t-94 175t-33 236.5zM211 530q0 -217 95 -333.5t265 -116.5q172 0 266.5 115.5t94.5 334.5t-95.5 335t-265.5 116 q-172 0 -266 -115t-94 -336z" />
<glyph unicode="r" horiz-adv-x="628" d="M137 0v1063h119v-186q47 111 129 162t199 51h14v-127h-16q-322 0 -322 -373v-590h-123z" />
<glyph unicode="s" horiz-adv-x="1005" d="M92 332h127q2 -111 80 -181.5t201 -70.5q137 0 210.5 55t73.5 144q0 49 -18 79.5t-54 51t-90.5 36t-123.5 31.5q-96 23 -168 47.5t-119 59t-71.5 82t-24.5 116.5q0 68 26.5 124.5t74.5 97t115.5 63.5t149.5 23q180 0 285.5 -89.5t116.5 -248.5h-127q-6 109 -78 169 t-199 60q-113 0 -175 -51t-62 -131q0 -59 22.5 -93t67.5 -56.5t108.5 -38t147.5 -36.5q170 -41 246.5 -105t76.5 -194q0 -66 -28.5 -122t-80.5 -97t-127 -63.5t-169 -22.5q-186 0 -298 97.5t-116 263.5z" />
<glyph unicode="t" horiz-adv-x="555" d="M31 963v100h145v305h123v-305h197v-100h-197v-775q0 -59 13.5 -86.5t64.5 -27.5q25 0 54.5 6t64.5 14v-98q-86 -23 -152 -23q-102 0 -135 53.5t-33 161.5v775h-145z" />
<glyph unicode="u" horiz-adv-x="1107" d="M133 348v715h123v-686q0 -152 57.5 -224.5t202.5 -72.5q154 0 242 94t88 260v629h123v-1063h-119v170q-121 -199 -356 -199q-360 0 -361 377z" />
<glyph unicode="v" horiz-adv-x="948" d="M6 1063h133l340 -913l334 913h127l-397 -1063h-137z" />
<glyph unicode="w" horiz-adv-x="1417" d="M0 1063h125l274 -889l244 889h137l240 -889l272 889h125l-334 -1063h-131l-245 889l-244 -889h-129z" />
<glyph unicode="x" horiz-adv-x="913" d="M0 0l373 545l-357 518h154l279 -424l274 424h149l-348 -516l387 -547h-155l-305 451l-304 -451h-147z" />
<glyph unicode="y" horiz-adv-x="954" d="M0 1063h131l344 -907l336 907h127l-471 -1270q-45 -123 -109.5 -176t-175.5 -53q-23 0 -43 2t-43 8v113q29 -4 49.5 -9.5t34.5 -5.5q39 0 66.5 11.5t48 35t37 57.5t33.5 79l49 133z" />
<glyph unicode="z" horiz-adv-x="950" d="M41 0v102l688 861h-653v100h801v-109l-678 -854h708v-100h-866z" />
<glyph unicode="{" d="M176 485v90q14 -2 26.5 -2h22.5q141 0 197.5 66t56.5 221v240q0 104 12.5 176t48 117t99 64.5t166.5 19.5h43v-88h-37q-74 0 -119 -13.5t-69.5 -44.5t-32.5 -82t-8 -125v-241q0 -76 -7.5 -134.5t-29 -100.5t-59 -70.5t-99.5 -47.5q61 -18 100 -46.5t59.5 -71.5t28 -100.5 t7.5 -133.5v-241q0 -74 8 -124.5t32.5 -81t69.5 -44t117 -13.5h39v-88h-43q-102 0 -166 19.5t-99.5 63.5t-48 116t-12.5 176v240q0 156 -57 221t-201 65q-10 0 -21.5 -1t-23.5 -1z" />
<glyph unicode="|" d="M467 -483v2048h90v-2048h-90z" />
<glyph unicode="}" d="M176 -326h39q72 0 117 13.5t69.5 44t32.5 81t8 124.5v241q0 76 7.5 133.5t29 100.5t60.5 71.5t100 46.5q-61 18 -100 47t-60.5 71t-29 100.5t-7.5 134.5v241q0 74 -8 125t-32.5 82t-69.5 44.5t-119 13.5h-37v88h43q102 0 166 -19.5t99.5 -64.5t48 -117t12.5 -176v-240 q0 -78 13 -132t44 -89t80 -50.5t121 -15.5q10 0 21.5 1t23.5 1v-90q-12 0 -23.5 1t-21.5 1q-72 0 -121 -15t-80 -50t-44 -89t-13 -132v-240q0 -104 -12.5 -176t-48 -116t-99 -63.5t-166.5 -19.5h-43v88z" />
<glyph unicode="~" horiz-adv-x="1705" d="M178 481v92q104 72 199.5 110t187.5 38q80 0 149.5 -22.5t139.5 -47.5q72 -27 141.5 -49t147.5 -22q92 0 184 41t203 118v-92q-104 -72 -199.5 -109.5t-187.5 -37.5q-82 0 -151.5 22.5t-137.5 46.5q-74 27 -143.5 49.5t-145.5 22.5q-92 0 -184 -41t-203 -119z" />
<glyph unicode="&#xa1;" horiz-adv-x="638" d="M252 0v535l29 575h79l27 -575v-535h-135zM252 1288v185h135v-185h-135z" />
<glyph unicode="&#xa2;" horiz-adv-x="1089" d="M72 524q0 135 34.5 240.5t98 178.5t152.5 111t200 38q53 0 113 -13l75 234h103l-84 -264q102 -45 158.5 -128t62.5 -196h-121q-12 145 -137 213l-272 -844q35 -6 62.5 -10t45.5 -4q127 0 212 76.5t102 210.5h120q-6 -90 -40.5 -164t-91 -125t-134.5 -79t-170 -28 q-57 0 -139 17l-88 -275h-103l97 305q-125 66 -190.5 193t-65.5 313zM199 537q0 -147 44 -250t124 -154l270 840q-45 10 -80 10q-166 0 -262 -115.5t-96 -330.5z" />
<glyph unicode="&#xa3;" horiz-adv-x="1089" d="M63 647v88h152q-49 90 -77.5 165t-28.5 153t31.5 147.5t90 121.5t140.5 82t182 30q211 0 331 -116t120 -325v-10h-127q-2 160 -88.5 245t-239.5 85q-141 0 -227 -74t-86 -197q0 -37 11 -71.5t29.5 -71.5t42 -78t48.5 -86h329v-88h-290q10 -41 17 -75.5t7 -65.5 q0 -190 -188 -385q53 29 102 42t102 13q43 0 84 -14.5t83 -31.5t82 -31.5t81 -14.5q59 0 109.5 30.5t109.5 84.5l68 -95q-78 -72 -152.5 -109.5t-150.5 -37.5q-49 0 -96.5 14.5t-95.5 31.5t-96 31.5t-99 14.5q-53 0 -104.5 -14.5t-98.5 -46.5l-74 114q102 72 154.5 166 t52.5 203q0 86 -43 176h-197z" />
<glyph unicode="&#xa4;" horiz-adv-x="1241" d="M94 418l207 205q-92 117 -92 262t92 262l-207 205l58 59l206 -207q119 94 263 94q145 0 264 -94l205 207l59 -59l-207 -205q92 -117 92 -262t-92 -262l207 -205l-59 -60l-205 207q-117 -92 -264 -92q-145 0 -263 92l-206 -207zM291 887q0 -68 25.5 -128.5t70.5 -105.5 t105.5 -71.5t130.5 -26.5t130 26.5t105 71.5t70.5 105.5t25.5 128.5t-25.5 128t-70.5 105t-105.5 71t-129.5 26q-70 0 -130.5 -27t-105.5 -71t-70.5 -104.5t-25.5 -127.5z" />
<glyph unicode="&#xa5;" horiz-adv-x="1146" d="M-6 1391h147l432 -662l433 662h149l-295 -443h281v-90h-338l-107 -156h445v-90h-500v-612h-135v612h-500v90h445l-105 156h-340v90h279z" />
<glyph unicode="&#xa6;" d="M467 -350v758h90v-758h-90zM467 674v758h90v-758h-90z" />
<glyph unicode="&#xa7;" d="M109 723q0 197 198 297q-104 74 -104 207q0 125 86 204.5t233 79.5q139 0 223 -84t84 -229v-22h-122q0 111 -51.5 169t-145.5 58q-86 0 -135 -46t-49 -124q0 -61 38.5 -107.5t118.5 -93.5l203 -119q117 -68 171 -140.5t54 -174.5q0 -176 -194 -279q106 -94 106 -227 q0 -61 -23.5 -113.5t-67.5 -90.5t-104.5 -58t-133.5 -20q-158 0 -241 83.5t-83 239.5v23h123v-11q0 -109 54 -168t153 -59q92 0 146 47t54 125q0 45 -16 77t-46 58.5t-70 52t-89 56.5l-172 110q-199 127 -198 279zM231 762q0 -57 37 -113.5t113 -103.5l268 -168 q68 45 103.5 93t35.5 110q0 72 -43 124t-129 103l-239 147q-72 -29 -109 -80t-37 -112z" />
<glyph unicode="&#xa8;" d="M281 1278v162h141v-162h-141zM602 1278v162h141v-162h-141z" />
<glyph unicode="&#xa9;" horiz-adv-x="1705" d="M123 721q0 145 55 278.5t162 241.5q102 104 232 157.5t280 53.5t283 -55.5t237 -159.5t157.5 -236.5t53.5 -279.5q0 -152 -53 -281t-158 -231q-109 -106 -242 -162.5t-278 -56.5q-147 0 -278.5 56t-235.5 161q-104 104 -159.5 235t-55.5 279zM195 721q0 -131 50 -250 t144 -213t213 -144.5t250 -50.5q129 0 250 50.5t219 146.5q92 92 141 209t49 252t-49 254t-141 211q-96 96 -215 145t-254 49t-252 -49t-209 -141q-96 -98 -146 -218t-50 -251zM471 725q0 104 28.5 187t80 141.5t123 90.5t157.5 32q133 0 223.5 -72t102.5 -186h-105 q-20 82 -79.5 127t-147.5 45q-125 0 -195.5 -95.5t-70.5 -275.5q0 -174 71.5 -269.5t194.5 -95.5q92 0 156.5 51.5t83.5 141.5h102q-6 -61 -33.5 -112.5t-74 -88.5t-107.5 -57.5t-133 -20.5q-170 0 -273.5 120t-103.5 337z" />
<glyph unicode="&#xaa;" horiz-adv-x="823" d="M63 926q0 129 127 186q63 27 136 33t151 12q43 8 69.5 13.5t43 14.5t22.5 24.5t6 43.5q0 86 -44 124t-154 38q-215 0 -225 -164h-93q4 111 87 175.5t231 64.5q291 0 291 -225v-406q0 -35 8 -51t49 -16h35v-64q-23 -4 -40.5 -5t-27.5 -1q-113 0 -112 102v11 q-125 -125 -295 -125q-123 0 -194 58t-71 157zM158 928q0 -66 48 -104t132 -38q125 0 202.5 60.5t77.5 169.5v104q-51 -18 -122.5 -24t-159.5 -11q-178 -43 -178 -157z" />
<glyph unicode="&#xab;" horiz-adv-x="833" d="M78 461v153l291 220v-134l-209 -163l209 -162v-133zM446 461v153l291 220v-134l-211 -163l211 -162v-133z" />
<glyph unicode="&#xac;" horiz-adv-x="1705" d="M254 776v80h1198v-502h-80v422h-1118z" />
<glyph unicode="&#xad;" horiz-adv-x="669" d="M80 473v121h495v-121h-495z" />
<glyph unicode="&#xae;" horiz-adv-x="1705" d="M123 721q0 145 55 278.5t162 241.5q102 104 232 157.5t280 53.5t283 -55.5t237 -159.5t157.5 -236.5t53.5 -279.5q0 -152 -53 -281t-158 -231q-109 -106 -242 -162.5t-278 -56.5q-147 0 -278.5 56t-235.5 161q-104 104 -159.5 235t-55.5 279zM195 721q0 -131 50 -250 t144 -213t213 -144.5t250 -50.5q129 0 250 50.5t219 146.5q92 92 141 209t49 252t-49 254t-141 211q-96 96 -215 145t-254 49t-252 -49t-209 -141q-96 -98 -146 -218t-50 -251zM569 309v846h305q176 0 262.5 -55.5t86.5 -177.5q0 -88 -54.5 -148.5t-148.5 -71.5l190 -393 h-131l-182 377h-213v-377h-115zM684 764h168q133 0 193.5 32.5t60.5 129.5q0 80 -62.5 115.5t-191.5 35.5h-168v-313z" />
<glyph unicode="&#xaf;" d="M256 1300v117h512v-117h-512z" />
<glyph unicode="&#xb0;" horiz-adv-x="673" d="M63 1176q0 57 21.5 107t58.5 87t87.5 58.5t107.5 21.5q55 0 105.5 -21.5t87 -58.5t58 -87t21.5 -107q0 -55 -21.5 -105.5t-58 -87.5t-87 -58.5t-107.5 -21.5t-107.5 21.5t-87.5 58.5t-57.5 86t-20.5 107zM125 1176q0 -45 16.5 -84t46 -68t68.5 -45t82 -16q45 0 84 16 t67.5 46t45 69t16.5 82t-16.5 81.5t-46 68.5t-68.5 46.5t-82 16.5q-90 0 -151.5 -61.5t-61.5 -151.5z" />
<glyph unicode="&#xb1;" horiz-adv-x="1705" d="M254 61v80h1198v-80h-1198zM254 727v80h559v354h80v-354h559v-80h-559v-352h-80v352h-559z" />
<glyph unicode="&#xb2;" horiz-adv-x="718" d="M45 557v27q0 98 57.5 168.5t173.5 138.5q78 43 140.5 74.5t97.5 66.5q57 55 57 133q0 86 -53 132t-145 46q-104 0 -159.5 -53t-55.5 -160h-90q4 139 83.5 212t223.5 73q133 0 210 -65.5t77 -182.5q0 -102 -76 -176q-43 -43 -107.5 -75.5t-142.5 -73.5 q-96 -51 -146.5 -100.5t-56.5 -114.5h522v-70h-610z" />
<glyph unicode="&#xb3;" horiz-adv-x="718" d="M47 801v2h92q2 -98 56.5 -151.5t152.5 -53.5q106 0 162.5 51t56.5 144q0 176 -239 176h-19.5t-19.5 -2v63q10 0 17 -1t16 -1q221 0 221 166q0 70 -49.5 114t-133.5 44q-94 0 -144 -49.5t-54 -141.5h-84q4 121 78.5 187.5t203.5 66.5q125 0 197 -60.5t72 -160.5 q0 -129 -131 -188q160 -43 159 -218q0 -117 -80.5 -186.5t-222.5 -69.5q-143 0 -225 71t-82 198z" />
<glyph unicode="&#xb4;" d="M387 1200l209 350h152l-269 -350h-92z" />
<glyph unicode="&#xb6;" d="M90 1130q0 76 27.5 140.5t79 110.5t125 72t163.5 26h447v-64h-129v-1415h-70v1415h-192v-1415h-70v782q-180 8 -280.5 103.5t-100.5 244.5z" />
<glyph unicode="&#xb7;" horiz-adv-x="544" d="M190 696q0 35 24 58.5t58 23.5q35 0 58.5 -23.5t23.5 -58.5t-23.5 -58.5t-58.5 -23.5t-58.5 23.5t-23.5 58.5z" />
<glyph unicode="&#xb8;" d="M303 -342q152 -35 238 -35q133 0 133 90q0 55 -37 80t-111 25h-22t-25 -2v184h66v-111h14q111 0 167 -44t56 -128q0 -86 -57 -131t-168 -45q-61 0 -124.5 10.5t-129.5 28.5v78z" />
<glyph unicode="&#xb9;" horiz-adv-x="718" d="M127 1194v53h4q117 0 175.5 39t64.5 129h78v-858h-89v684q-33 -27 -87 -37t-134 -10h-12z" />
<glyph unicode="&#xba;" horiz-adv-x="858" d="M63 1100q0 188 95.5 289.5t269.5 101.5q176 0 272.5 -101.5t96.5 -289.5t-96.5 -288.5t-272.5 -100.5q-174 0 -269.5 100.5t-95.5 288.5zM158 1100q0 -154 71.5 -234t198.5 -80q129 0 200.5 80t71.5 234t-71.5 234.5t-200.5 80.5q-127 0 -198.5 -80.5t-71.5 -234.5z" />
<glyph unicode="&#xbb;" horiz-adv-x="833" d="M98 242v133l209 162l-209 163v134l291 -220v-153zM465 242v133l211 162l-211 163v134l291 -220v-153z" />
<glyph unicode="&#xbc;" horiz-adv-x="1716" d="M121 1206v49h4q111 0 167 37t62 121h76v-801h-86v639q-57 -45 -211 -45h-12zM344 -41l920 1473h104l-919 -1473h-105zM1075 199v61l383 518h92v-518h117v-61h-117v-199h-86v199h-389zM1153 260h311v424z" />
<glyph unicode="&#xbd;" horiz-adv-x="1716" d="M121 1206v49h4q111 0 167 37t62 121h76v-801h-86v639q-57 -45 -211 -45h-12zM344 -41l920 1473h104l-919 -1473h-105zM1071 0v25q0 92 55.5 157.5t165.5 128.5q72 41 131.5 70t94.5 61q29 29 42 57.5t13 67.5q0 80 -50 123t-141 43q-98 0 -151 -49t-53 -147h-86 q4 129 80.5 196.5t213.5 67.5q125 0 199 -61.5t74 -170.5q0 -94 -72 -163q-41 -41 -103.5 -71t-133.5 -69q-92 -47 -140.5 -94t-54.5 -109h500v-63h-584z" />
<glyph unicode="&#xbe;" horiz-adv-x="1714" d="M45 840v2h88q2 -92 53.5 -142.5t147.5 -50.5q100 0 153.5 48t53.5 134q0 166 -228 166h-19t-20 -2v60q10 0 17.5 -1t15.5 -1q211 0 211 153q0 66 -48 107t-126 41q-90 0 -138 -46t-52 -132h-80q4 113 75.5 175t194.5 62q121 0 188.5 -56.5t67.5 -150.5q0 -121 -125 -176 q74 -18 114 -70.5t40 -130.5q0 -111 -78 -175t-213 -64q-137 0 -215 66.5t-78 183.5zM344 -41l920 1473h104l-919 -1473h-105zM1075 199v61l383 518h92v-518h117v-61h-117v-199h-86v199h-389zM1153 260h311v424z" />
<glyph unicode="&#xbf;" horiz-adv-x="1005" d="M68 334q0 96 35.5 170t113.5 145q53 49 97 89t75 80t48.5 84t17.5 99v109h135v-123q0 -51 -10.5 -91t-30 -74t-47 -64.5t-60.5 -65.5q-45 -47 -88 -86t-75.5 -78t-52 -83t-19.5 -99q0 -127 76.5 -196.5t212.5 -69.5q315 0 315 336h139q-6 -223 -123.5 -340t-337.5 -117 q-199 0 -310 102.5t-111 272.5zM455 1288v185h135v-185h-135z" />
<glyph unicode="&#xc0;" horiz-adv-x="1261" d="M-10 0l559 1473h162l559 -1473h-142l-165 451h-664l-168 -451h-141zM344 571h571l-286 758zM417 1970h152l209 -350h-92z" />
<glyph unicode="&#xc1;" horiz-adv-x="1261" d="M-10 0l559 1473h162l559 -1473h-142l-165 451h-664l-168 -451h-141zM344 571h571l-286 758zM528 1620l209 350h152l-269 -350h-92z" />
<glyph unicode="&#xc2;" horiz-adv-x="1261" d="M-10 0l559 1473h162l559 -1473h-142l-165 451h-664l-168 -451h-141zM344 571h571l-286 758zM377 1620l200 350h152l200 -350h-92l-184 264l-184 -264h-92z" />
<glyph unicode="&#xc3;" horiz-adv-x="1261" d="M-10 0l559 1473h162l559 -1473h-142l-165 451h-664l-168 -451h-141zM344 571h571l-286 758zM364 1680q23 90 73 136t122 46q31 0 53 -8l96 -33q16 -6 30.5 -8t25.5 -2q66 0 96 73h82q-53 -182 -191 -182q-29 0 -65 10l-96 31q-25 8 -54 8q-61 0 -92 -71h-80z" />
<glyph unicode="&#xc4;" horiz-adv-x="1261" d="M-10 0l559 1473h162l559 -1473h-142l-165 451h-664l-168 -451h-141zM344 571h571l-286 758zM422 1698v162h141v-162h-141zM743 1698v162h141v-162h-141z" />
<glyph unicode="&#xc5;" horiz-adv-x="1261" d="M-10 0l559 1473h162l559 -1473h-142l-167 453h-660l-170 -453h-141zM344 571h571l-286 758zM395 1737q0 49 18.5 92t50.5 74.5t75 50t92 18.5t92 -18.5t73.5 -50t49 -74.5t18.5 -92t-18.5 -92t-49 -75t-73.5 -50.5t-92 -18.5t-92 18.5t-75 50.5t-50.5 75t-18.5 92z M487 1735q0 -59 41 -100.5t101 -41.5q59 0 101 41t42 101q0 59 -42 102t-101 43t-100.5 -43t-41.5 -102z" />
<glyph unicode="&#xc6;" horiz-adv-x="1978" d="M6 0l617 1473h1249v-121h-785v-533h711v-121h-711v-577h807v-121h-942v451h-616l-189 -451h-141zM385 571h567v781h-241z" />
<glyph unicode="&#xc7;" horiz-adv-x="1425" d="M100 739q0 182 46.5 325.5t130 243t202.5 151.5t266 52q125 0 228.5 -33.5t177.5 -95t116 -147.5t48 -193h-133q-16 162 -133 255.5t-304 93.5q-236 0 -370.5 -166t-134.5 -484q0 -160 35.5 -282.5t102 -206.5t161 -128t211.5 -44q199 0 315.5 105.5t130.5 295.5h133 q-16 -246 -170.5 -384t-417.5 -138q-147 0 -265 53.5t-202 152.5t-129 244.5t-45 329.5zM504 -342q152 -35 238 -35q133 0 133 90q0 55 -37 80t-111 25h-22t-25 -2v184h66v-111h14q111 0 167 -44t56 -128q0 -86 -57 -131t-168 -45q-61 0 -124.5 10.5t-129.5 28.5v78z" />
<glyph unicode="&#xc8;" horiz-adv-x="1239" d="M164 0v1473h964v-121h-829v-535h758v-121h-758v-575h854v-121h-989zM423 1970h152l209 -350h-92z" />
<glyph unicode="&#xc9;" horiz-adv-x="1239" d="M164 0v1473h964v-121h-829v-535h758v-121h-758v-575h854v-121h-989zM534 1620l209 350h152l-269 -350h-92z" />
<glyph unicode="&#xca;" horiz-adv-x="1239" d="M164 0v1473h964v-121h-829v-535h758v-121h-758v-575h854v-121h-989zM383 1620l200 350h152l200 -350h-92l-184 264l-184 -264h-92z" />
<glyph unicode="&#xcb;" horiz-adv-x="1239" d="M164 0v1473h964v-121h-829v-535h758v-121h-758v-575h854v-121h-989zM428 1698v162h141v-162h-141zM749 1698v162h141v-162h-141z" />
<glyph unicode="&#xcc;" horiz-adv-x="485" d="M10 1970h152l209 -350h-92zM174 0v1473h135v-1473h-135z" />
<glyph unicode="&#xcd;" horiz-adv-x="485" d="M121 1620l209 350h152l-269 -350h-92zM174 0v1473h135v-1473h-135z" />
<glyph unicode="&#xce;" horiz-adv-x="485" d="M-30 1620l200 350h152l200 -350h-92l-184 264l-184 -264h-92zM174 0v1473h135v-1473h-135z" />
<glyph unicode="&#xcf;" horiz-adv-x="485" d="M15 1698v162h141v-162h-141zM174 0v1473h135v-1473h-135zM336 1698v162h141v-162h-141z" />
<glyph unicode="&#xd0;" horiz-adv-x="1435" d="M10 723v100h162v650h348h101q131 0 236.5 -12.5t191.5 -67.5q135 -86 206.5 -251t71.5 -403q0 -256 -78 -425t-229 -251q-80 -43 -189.5 -53t-252.5 -10h-406v723h-162zM307 121h287q123 0 214 8t157 47q223 133 223 559q0 414 -211 551q-72 47 -170 56.5t-227 9.5h-273 v-529h443v-100h-443v-602z" />
<glyph unicode="&#xd1;" horiz-adv-x="1441" d="M164 0v1473h149l828 -1264v1264h135v-1473h-150l-827 1264v-1264h-135zM432 1680q23 90 73 136t122 46q31 0 53 -8l96 -33q16 -6 30.5 -8t25.5 -2q66 0 96 73h82q-53 -182 -191 -182q-29 0 -65 10l-96 31q-25 8 -54 8q-61 0 -92 -71h-80z" />
<glyph unicode="&#xd2;" horiz-adv-x="1550" d="M100 735q0 180 48.5 324.5t136.5 245t212 153.5t277 53q154 0 279 -53t213 -153.5t136 -245t48 -324.5q0 -182 -48 -325.5t-136 -243.5t-213 -153.5t-279 -53.5t-277.5 53.5t-211.5 153.5t-136.5 243.5t-48.5 325.5zM240 735q0 -156 38.5 -277.5t108.5 -205.5t168 -128 t219 -44t219.5 44t169 128t109.5 206t39 277q0 156 -39 278t-109.5 206t-169 128t-219.5 44q-119 0 -217 -44t-169 -129t-109.5 -207t-38.5 -276zM540 1970h152l209 -350h-92z" />
<glyph unicode="&#xd3;" horiz-adv-x="1550" d="M100 735q0 180 48.5 324.5t136.5 245t212 153.5t277 53q154 0 279 -53t213 -153.5t136 -245t48 -324.5q0 -182 -48 -325.5t-136 -243.5t-213 -153.5t-279 -53.5t-277.5 53.5t-211.5 153.5t-136.5 243.5t-48.5 325.5zM240 735q0 -156 38.5 -277.5t108.5 -205.5t168 -128 t219 -44t219.5 44t169 128t109.5 206t39 277q0 156 -39 278t-109.5 206t-169 128t-219.5 44q-119 0 -217 -44t-169 -129t-109.5 -207t-38.5 -276zM651 1620l209 350h152l-269 -350h-92z" />
<glyph unicode="&#xd4;" horiz-adv-x="1550" d="M100 735q0 180 48.5 324.5t136.5 245t212 153.5t277 53q154 0 279 -53t213 -153.5t136 -245t48 -324.5q0 -182 -48 -325.5t-136 -243.5t-213 -153.5t-279 -53.5t-277.5 53.5t-211.5 153.5t-136.5 243.5t-48.5 325.5zM240 735q0 -156 38.5 -277.5t108.5 -205.5t168 -128 t219 -44t219.5 44t169 128t109.5 206t39 277q0 156 -39 278t-109.5 206t-169 128t-219.5 44q-119 0 -217 -44t-169 -129t-109.5 -207t-38.5 -276zM500 1620l200 350h152l200 -350h-92l-184 264l-184 -264h-92z" />
<glyph unicode="&#xd5;" horiz-adv-x="1550" d="M100 735q0 180 48.5 324.5t136.5 245t212 153.5t277 53q154 0 279 -53t213 -153.5t136 -245t48 -324.5q0 -182 -48 -325.5t-136 -243.5t-213 -153.5t-279 -53.5t-277.5 53.5t-211.5 153.5t-136.5 243.5t-48.5 325.5zM240 735q0 -156 38.5 -277.5t108.5 -205.5t168 -128 t219 -44t219.5 44t169 128t109.5 206t39 277q0 156 -39 278t-109.5 206t-169 128t-219.5 44q-119 0 -217 -44t-169 -129t-109.5 -207t-38.5 -276zM487 1680q23 90 73 136t122 46q31 0 53 -8l96 -33q16 -6 30.5 -8t25.5 -2q66 0 96 73h82q-53 -182 -191 -182q-29 0 -65 10 l-96 31q-25 8 -54 8q-61 0 -92 -71h-80z" />
<glyph unicode="&#xd6;" horiz-adv-x="1550" d="M100 735q0 180 48.5 324.5t136.5 245t212 153.5t277 53q154 0 279 -53t213 -153.5t136 -245t48 -324.5q0 -182 -48 -325.5t-136 -243.5t-213 -153.5t-279 -53.5t-277.5 53.5t-211.5 153.5t-136.5 243.5t-48.5 325.5zM240 735q0 -156 38.5 -277.5t108.5 -205.5t168 -128 t219 -44t219.5 44t169 128t109.5 206t39 277q0 156 -39 278t-109.5 206t-169 128t-219.5 44q-119 0 -217 -44t-169 -129t-109.5 -207t-38.5 -276zM545 1698v162h141v-162h-141zM866 1698v162h141v-162h-141z" />
<glyph unicode="&#xd7;" horiz-adv-x="1705" d="M309 123l488 487l-488 488l58 57l487 -487l487 487l58 -57l-488 -488l488 -487l-58 -57l-487 487l-487 -487z" />
<glyph unicode="&#xd8;" horiz-adv-x="1550" d="M72 12l178 203q-152 197 -152 520q0 180 49.5 324.5t138.5 245t215 153.5t279 53q266 0 443 -165l159 184l80 -66l-168 -196q88 -111 123 -240t35 -293q0 -182 -48 -325.5t-136 -243.5t-212 -153.5t-276 -53.5q-289 0 -465 176l-161 -188zM238 735q0 -258 100 -416 l799 926q-156 145 -359 146q-121 0 -220 -44t-170 -129t-110.5 -207t-39.5 -276zM401 238q156 -158 377 -158q119 0 217.5 45t169 129t109.5 207t39 278q0 129 -25.5 233.5t-85.5 192.5z" />
<glyph unicode="&#xd9;" horiz-adv-x="1427" d="M154 526v947h135v-928q0 -240 97 -352.5t327 -112.5q229 0 327.5 112.5t98.5 352.5v928h135v-947q0 -567 -561 -567q-559 0 -559 567zM479 1970h152l209 -350h-92z" />
<glyph unicode="&#xda;" horiz-adv-x="1427" d="M154 526v947h135v-928q0 -240 97 -352.5t327 -112.5q229 0 327.5 112.5t98.5 352.5v928h135v-947q0 -567 -561 -567q-559 0 -559 567zM590 1620l209 350h152l-269 -350h-92z" />
<glyph unicode="&#xdb;" horiz-adv-x="1427" d="M154 526v947h135v-928q0 -240 97 -352.5t327 -112.5q229 0 327.5 112.5t98.5 352.5v928h135v-947q0 -567 -561 -567q-559 0 -559 567zM439 1620l200 350h152l200 -350h-92l-184 264l-184 -264h-92z" />
<glyph unicode="&#xdc;" horiz-adv-x="1427" d="M154 526v947h135v-928q0 -240 97 -352.5t327 -112.5q229 0 327.5 112.5t98.5 352.5v928h135v-947q0 -567 -561 -567q-559 0 -559 567zM484 1698v162h141v-162h-141zM805 1698v162h141v-162h-141z" />
<glyph unicode="&#xdd;" horiz-adv-x="1146" d="M-14 1473h155l432 -697l433 697h155l-520 -826v-647h-135v647zM448 1620l209 350h152l-269 -350h-92z" />
<glyph unicode="&#xde;" horiz-adv-x="1236" d="M164 0v1473h135v-269h379q483 0 483 -413q0 -215 -135 -317.5t-414 -102.5h-313v-371h-135zM299 492h315q209 0 308.5 67.5t99.5 233.5q0 152 -85 221t-265 69h-373v-591z" />
<glyph unicode="&#xdf;" horiz-adv-x="1034" d="M137 0v1118q0 373 369 373q180 0 279.5 -98.5t99.5 -274.5q0 -104 -41 -178t-119 -113q227 -106 227 -395q0 -104 -27.5 -189t-77.5 -143.5t-121 -90.5t-159 -32q-18 0 -45.5 3.5t-62.5 7.5v104q37 -6 67 -6q145 0 222 87t77 253q0 342 -372 342v100h28q141 0 209 60.5 t68 195.5q0 266 -252 267q-143 0 -194.5 -73t-51.5 -226v-1092h-123z" />
<glyph unicode="&#xe0;" horiz-adv-x="1097" d="M84 281q0 188 170 266q86 39 181 47t202 18q55 12 92 19.5t57.5 20t28.5 35t8 63.5q0 121 -58 176t-206 55q-289 0 -301 -236h-121q4 158 114.5 251.5t307.5 93.5q193 0 291 -81t98 -241v-580q0 -53 10.5 -75.5t65.5 -22.5h17.5t27.5 2v-92q-29 -6 -51.5 -8t-36.5 -2 q-152 0 -152 147v17q-168 -180 -393 -181q-164 0 -258 84t-94 224zM211 283q0 -92 64.5 -146.5t175.5 -54.5q82 0 151.5 22.5t118.5 64.5t76.5 102.5t27.5 138.5l-2 149q-68 -27 -163 -36t-211 -15q-238 -63 -238 -225zM321 1550h152l209 -350h-92z" />
<glyph unicode="&#xe1;" horiz-adv-x="1097" d="M84 281q0 188 170 266q86 39 181 47t202 18q55 12 92 19.5t57.5 20t28.5 35t8 63.5q0 121 -58 176t-206 55q-289 0 -301 -236h-121q4 158 114.5 251.5t307.5 93.5q193 0 291 -81t98 -241v-580q0 -53 10.5 -75.5t65.5 -22.5h17.5t27.5 2v-92q-29 -6 -51.5 -8t-36.5 -2 q-152 0 -152 147v17q-168 -180 -393 -181q-164 0 -258 84t-94 224zM211 283q0 -92 64.5 -146.5t175.5 -54.5q82 0 151.5 22.5t118.5 64.5t76.5 102.5t27.5 138.5l-2 149q-68 -27 -163 -36t-211 -15q-238 -63 -238 -225zM432 1200l209 350h152l-269 -350h-92z" />
<glyph unicode="&#xe2;" horiz-adv-x="1097" d="M84 281q0 188 170 266q86 39 181 47t202 18q55 12 92 19.5t57.5 20t28.5 35t8 63.5q0 121 -58 176t-206 55q-289 0 -301 -236h-121q4 158 114.5 251.5t307.5 93.5q193 0 291 -81t98 -241v-580q0 -53 10.5 -75.5t65.5 -22.5h17.5t27.5 2v-92q-29 -6 -51.5 -8t-36.5 -2 q-152 0 -152 147v17q-168 -180 -393 -181q-164 0 -258 84t-94 224zM211 283q0 -92 64.5 -146.5t175.5 -54.5q82 0 151.5 22.5t118.5 64.5t76.5 102.5t27.5 138.5l-2 149q-68 -27 -163 -36t-211 -15q-238 -63 -238 -225zM281 1200l200 350h152l200 -350h-92l-184 264 l-184 -264h-92z" />
<glyph unicode="&#xe3;" horiz-adv-x="1097" d="M84 281q0 188 170 266q86 39 181 47t202 18q55 12 92 19.5t57.5 20t28.5 35t8 63.5q0 121 -58 176t-206 55q-289 0 -301 -236h-121q4 158 114.5 251.5t307.5 93.5q193 0 291 -81t98 -241v-580q0 -53 10.5 -75.5t65.5 -22.5h17.5t27.5 2v-92q-29 -6 -51.5 -8t-36.5 -2 q-152 0 -152 147v17q-168 -180 -393 -181q-164 0 -258 84t-94 224zM211 283q0 -92 64.5 -146.5t175.5 -54.5q82 0 151.5 22.5t118.5 64.5t76.5 102.5t27.5 138.5l-2 149q-68 -27 -163 -36t-211 -15q-238 -63 -238 -225zM268 1260q23 90 73 136t122 46q31 0 53 -8l96 -33 q16 -6 30.5 -8t25.5 -2q66 0 96 73h82q-53 -182 -191 -182q-29 0 -65 10l-96 31q-25 8 -54 8q-61 0 -92 -71h-80z" />
<glyph unicode="&#xe4;" horiz-adv-x="1097" d="M84 281q0 188 170 266q86 39 181 47t202 18q55 12 92 19.5t57.5 20t28.5 35t8 63.5q0 121 -58 176t-206 55q-289 0 -301 -236h-121q4 158 114.5 251.5t307.5 93.5q193 0 291 -81t98 -241v-580q0 -53 10.5 -75.5t65.5 -22.5h17.5t27.5 2v-92q-29 -6 -51.5 -8t-36.5 -2 q-152 0 -152 147v17q-168 -180 -393 -181q-164 0 -258 84t-94 224zM211 283q0 -92 64.5 -146.5t175.5 -54.5q82 0 151.5 22.5t118.5 64.5t76.5 102.5t27.5 138.5l-2 149q-68 -27 -163 -36t-211 -15q-238 -63 -238 -225zM326 1278v162h141v-162h-141zM647 1278v162h141v-162 h-141z" />
<glyph unicode="&#xe5;" horiz-adv-x="1097" d="M84 281q0 188 170 266q86 39 181 47t202 18q55 12 92 19.5t57.5 20t28.5 35t8 63.5q0 121 -58 176t-206 55q-289 0 -301 -236h-121q4 158 114.5 251.5t307.5 93.5q193 0 291 -81t98 -241v-580q0 -53 10.5 -75.5t65.5 -22.5h17.5t27.5 2v-92q-29 -6 -51.5 -8t-36.5 -2 q-152 0 -152 147v17q-168 -180 -393 -181q-164 0 -258 84t-94 224zM211 283q0 -92 64.5 -146.5t175.5 -54.5q166 0 268 87t102 241v147q-66 -25 -161 -35t-211 -20q-238 -53 -238 -219zM317 1395q0 51 18.5 94t51.5 75.5t77 51t95 18.5t94 -18.5t76 -51t51.5 -75.5t18.5 -94 t-18.5 -95.5t-51.5 -77t-76 -51t-94 -18.5t-95 18.5t-77 51t-51.5 77t-18.5 95.5zM410 1395q0 -63 43 -106.5t106 -43.5q61 0 104.5 43t43.5 107q0 63 -42 105t-106 42q-63 0 -106 -42t-43 -105z" />
<glyph unicode="&#xe6;" horiz-adv-x="1808" d="M68 279q0 86 37.5 151.5t105.5 101.5q78 41 166 55.5t186 24.5q78 8 124 16.5t70.5 22t33 38t8.5 65.5q0 119 -60.5 173t-201.5 54t-217 -59.5t-76 -173.5v-5h-123q0 162 106.5 254.5t302.5 92.5q291 0 377 -181q141 180 353 181q219 0 339.5 -136.5t120.5 -392.5 q0 -12 -1 -25.5t-1 -29.5h-798v-17q0 -193 92 -300t250 -107q135 0 220 64.5t101 181.5h125q-10 -78 -47 -143.5t-94.5 -112.5t-134 -73t-164.5 -26q-147 0 -252 61.5t-158 178.5q-72 -117 -183.5 -178.5t-258.5 -61.5q-160 0 -254 83t-94 223zM195 276q0 -94 60 -144 t165 -50q182 0 279.5 83t97.5 238v158q-74 -35 -170.5 -44t-204.5 -28q-227 -41 -227 -213zM924 606h667q0 180 -88 277.5t-241 97.5q-143 0 -235.5 -99.5t-102.5 -275.5z" />
<glyph unicode="&#xe7;" horiz-adv-x="1056" d="M84 524q0 133 34 238.5t95 178.5t148.5 111t195.5 38q90 0 165 -27t130 -75t88 -114.5t37 -148.5h-119q-16 117 -98 186.5t-203 69.5q-78 0 -141.5 -29.5t-108.5 -87t-70.5 -140.5t-25.5 -189q0 -217 96 -335t252 -118q123 0 206 74.5t103 210.5h123q-16 -184 -134 -289 t-308 -105q-106 0 -192.5 38t-146.5 108.5t-93 173t-33 231.5zM319 -342q152 -35 238 -35q133 0 133 90q0 55 -37 80t-111 25h-22t-25 -2v184h66v-111h14q111 0 167 -44t56 -128q0 -86 -57 -131t-168 -45q-61 0 -124.5 10.5t-129.5 28.5v78z" />
<glyph unicode="&#xe8;" horiz-adv-x="1085" d="M84 526q0 270 125 417t342 147q213 0 333 -139.5t120 -401.5v-41h-793v-6q0 -201 95 -311.5t249 -110.5q125 0 209 65.5t102 182.5h123q-20 -162 -139 -259.5t-303 -97.5q-217 0 -340 144.5t-123 410.5zM211 608h666q-8 178 -96.5 275.5t-231.5 97.5t-235.5 -98.5 t-102.5 -274.5zM307 1550h152l209 -350h-92z" />
<glyph unicode="&#xe9;" horiz-adv-x="1085" d="M84 526q0 270 125 417t342 147q213 0 333 -139.5t120 -401.5v-41h-793v-6q0 -201 95 -311.5t249 -110.5q125 0 209 65.5t102 182.5h123q-20 -162 -139 -259.5t-303 -97.5q-217 0 -340 144.5t-123 410.5zM211 608h666q-8 178 -96.5 275.5t-231.5 97.5t-235.5 -98.5 t-102.5 -274.5zM418 1200l209 350h152l-269 -350h-92z" />
<glyph unicode="&#xea;" horiz-adv-x="1085" d="M84 526q0 270 125 417t342 147q213 0 333 -139.5t120 -401.5v-41h-793v-6q0 -201 95 -311.5t249 -110.5q125 0 209 65.5t102 182.5h123q-20 -162 -139 -259.5t-303 -97.5q-217 0 -340 144.5t-123 410.5zM211 608h666q-8 178 -96.5 275.5t-231.5 97.5t-235.5 -98.5 t-102.5 -274.5zM267 1200l200 350h152l200 -350h-92l-184 264l-184 -264h-92z" />
<glyph unicode="&#xeb;" horiz-adv-x="1085" d="M84 526q0 270 125 417t342 147q213 0 333 -139.5t120 -401.5v-41h-793v-6q0 -201 95 -311.5t249 -110.5q125 0 209 65.5t102 182.5h123q-20 -162 -139 -259.5t-303 -97.5q-217 0 -340 144.5t-123 410.5zM211 608h666q-8 178 -96.5 275.5t-231.5 97.5t-235.5 -98.5 t-102.5 -274.5zM312 1278v162h141v-162h-141zM633 1278v162h141v-162h-141z" />
<glyph unicode="&#xec;" horiz-adv-x="421" d="M-23 1550h152l209 -350h-92zM150 0v1063h122v-1063h-122z" />
<glyph unicode="&#xed;" horiz-adv-x="421" d="M88 1200l209 350h152l-269 -350h-92zM150 0v1063h122v-1063h-122z" />
<glyph unicode="&#xee;" horiz-adv-x="421" d="M-63 1200l200 350h152l200 -350h-92l-184 264l-184 -264h-92zM150 0v1063h122v-1063h-122z" />
<glyph unicode="&#xef;" horiz-adv-x="421" d="M-18 1278v162h141v-162h-141zM150 0v1063h122v-1063h-122zM303 1278v162h141v-162h-141z" />
<glyph unicode="&#xf0;" horiz-adv-x="1142" d="M84 510q0 127 34 227.5t95 170t145 106.5t185 37q119 0 221 -47q-39 57 -93.5 109t-125.5 104l-277 -144l-30 70l229 123q-104 66 -254 118l29 99q139 -41 346 -158l254 135l35 -67l-222 -119q406 -315 406 -756q0 -266 -127 -405.5t-363 -139.5t-361.5 138.5 t-125.5 398.5zM211 518q0 -211 94 -323.5t266 -112.5q170 0 266.5 112.5t96.5 323.5q0 213 -95.5 318.5t-267.5 105.5t-266 -106.5t-94 -317.5z" />
<glyph unicode="&#xf1;" horiz-adv-x="1103" d="M137 0v1063h119v-170q119 197 352 197q111 0 194 -39t126 -111q31 -49 37 -112.5t6 -149.5v-678h-123v664q0 80 -11.5 140t-40 99t-79.5 58.5t-133 19.5q-147 0 -235.5 -94t-88.5 -260v-627h-123zM305 1260q23 90 73 136t122 46q31 0 53 -8l96 -33q16 -6 30.5 -8t25.5 -2 q66 0 96 73h82q-53 -182 -191 -182q-29 0 -65 10l-96 31q-25 8 -54 8q-61 0 -92 -71h-80z" />
<glyph unicode="&#xf2;" horiz-adv-x="1142" d="M84 530q0 268 127 414t360 146t361.5 -145.5t128.5 -414.5q0 -268 -128 -412.5t-362 -144.5q-233 0 -360 144.5t-127 412.5zM211 530q0 -219 95 -333.5t265 -114.5q172 0 267.5 114.5t95.5 333.5t-95.5 335t-267.5 116q-170 0 -265 -116t-95 -335zM335 1550h152l209 -350 h-92z" />
<glyph unicode="&#xf3;" horiz-adv-x="1142" d="M84 530q0 268 127 414t360 146t361.5 -145.5t128.5 -414.5q0 -268 -128 -412.5t-362 -144.5q-233 0 -360 144.5t-127 412.5zM211 530q0 -219 95 -333.5t265 -114.5q172 0 267.5 114.5t95.5 333.5t-95.5 335t-267.5 116q-170 0 -265 -116t-95 -335zM446 1200l209 350h152 l-269 -350h-92z" />
<glyph unicode="&#xf4;" horiz-adv-x="1142" d="M84 530q0 268 127 414t360 146t361.5 -145.5t128.5 -414.5q0 -268 -128 -412.5t-362 -144.5q-233 0 -360 144.5t-127 412.5zM211 530q0 -219 95 -333.5t265 -114.5q172 0 267.5 114.5t95.5 333.5t-95.5 335t-267.5 116q-170 0 -265 -116t-95 -335zM295 1200l200 350h152 l200 -350h-92l-184 264l-184 -264h-92z" />
<glyph unicode="&#xf5;" horiz-adv-x="1142" d="M84 530q0 268 127 414t360 146t361.5 -145.5t128.5 -414.5q0 -268 -128 -412.5t-362 -144.5q-233 0 -360 144.5t-127 412.5zM211 530q0 -219 95 -333.5t265 -114.5q172 0 267.5 114.5t95.5 333.5t-95.5 335t-267.5 116q-170 0 -265 -116t-95 -335zM282 1260q23 90 73 136 t122 46q31 0 53 -8l96 -33q16 -6 30.5 -8t25.5 -2q66 0 96 73h82q-53 -182 -191 -182q-29 0 -65 10l-96 31q-25 8 -54 8q-61 0 -92 -71h-80z" />
<glyph unicode="&#xf6;" horiz-adv-x="1142" d="M84 530q0 268 127 414t360 146t361.5 -145.5t128.5 -414.5q0 -268 -128 -412.5t-362 -144.5q-233 0 -360 144.5t-127 412.5zM211 530q0 -219 95 -333.5t265 -114.5q172 0 267.5 114.5t95.5 333.5t-95.5 335t-267.5 116q-170 0 -265 -116t-95 -335zM340 1278v162h141v-162 h-141zM661 1278v162h141v-162h-141z" />
<glyph unicode="&#xf7;" horiz-adv-x="1705" d="M254 571v80h1198v-80h-1198zM756 266q0 41 28.5 71t69.5 30t69.5 -30t28.5 -71t-28.5 -69.5t-69.5 -28.5t-69.5 27.5t-28.5 70.5zM756 956q0 41 28.5 70t69.5 29t69.5 -29t28.5 -70t-28.5 -70.5t-69.5 -29.5t-69.5 29.5t-28.5 70.5z" />
<glyph unicode="&#xf8;" horiz-adv-x="1142" d="M84 551q0 123 35 223t98.5 170t154.5 108t201 38q102 0 182.5 -28t145.5 -87l100 119l52 -43l-107 -127q59 -76 87 -171.5t28 -217.5q0 -274 -127 -418t-361 -144q-205 0 -329 113l-101 -121l-51 43l107 127q-63 84 -89 185.5t-26 230.5zM211 528q0 -178 70 -297l540 650 q-98 100 -246 100q-174 0 -269 -114.5t-95 -338.5zM324 182q92 -100 249 -100q172 0 266.5 114.5t94.5 333.5q0 188 -72 293z" />
<glyph unicode="&#xf9;" horiz-adv-x="1107" d="M133 348v715h123v-686q0 -152 57.5 -224.5t202.5 -72.5q154 0 242 94t88 260v629h123v-1063h-119v170q-121 -199 -356 -199q-360 0 -361 377zM319 1550h152l209 -350h-92z" />
<glyph unicode="&#xfa;" horiz-adv-x="1107" d="M133 348v715h123v-686q0 -152 57.5 -224.5t202.5 -72.5q154 0 242 94t88 260v629h123v-1063h-119v170q-121 -199 -356 -199q-360 0 -361 377zM430 1200l209 350h152l-269 -350h-92z" />
<glyph unicode="&#xfb;" horiz-adv-x="1107" d="M133 348v715h123v-686q0 -152 57.5 -224.5t202.5 -72.5q154 0 242 94t88 260v629h123v-1063h-119v170q-121 -199 -356 -199q-360 0 -361 377zM279 1200l200 350h152l200 -350h-92l-184 264l-184 -264h-92z" />
<glyph unicode="&#xfc;" horiz-adv-x="1107" d="M133 348v715h123v-686q0 -152 57.5 -224.5t202.5 -72.5q154 0 242 94t88 260v629h123v-1063h-119v170q-121 -199 -356 -199q-360 0 -361 377zM324 1278v162h141v-162h-141zM645 1278v162h141v-162h-141z" />
<glyph unicode="&#xfd;" horiz-adv-x="954" d="M0 1063h131l344 -907l336 907h127l-471 -1270q-45 -123 -109.5 -176t-175.5 -53q-23 0 -43 2t-43 8v113q29 -4 49.5 -9.5t34.5 -5.5q39 0 66.5 11.5t48 35t37 57.5t33.5 79l49 133zM354 1200l209 350h152l-269 -350h-92z" />
<glyph unicode="&#xfe;" horiz-adv-x="1187" d="M141 -428v1901h123v-603q61 113 152.5 166.5t220.5 53.5q106 0 193.5 -38t148.5 -110t95 -176t34 -236q0 -133 -34 -236.5t-96.5 -175t-150.5 -109.5t-196 -38q-242 0 -367 215v-614h-123zM260 530q0 -215 95.5 -332.5t262.5 -117.5q172 0 267.5 114.5t95.5 335.5 q0 219 -96.5 335t-266.5 116q-172 0 -265 -115t-93 -336z" />
<glyph unicode="&#xff;" horiz-adv-x="954" d="M0 1063h131l344 -907l336 907h127l-471 -1270q-45 -123 -109.5 -176t-175.5 -53q-23 0 -43 2t-43 8v113q29 -4 49.5 -9.5t34.5 -5.5q39 0 66.5 11.5t48 35t37 57.5t33.5 79l49 133zM248 1278v162h141v-162h-141zM569 1278v162h141v-162h-141z" />
<glyph unicode="&#x152;" horiz-adv-x="2277" d="M102 735q0 180 48.5 324.5t136.5 245t209.5 153.5t269.5 53q141 0 246.5 -47t191.5 -149v158h963v-121h-828v-533h754v-121h-754v-577h852v-121h-987v156q-92 -100 -199.5 -147.5t-236.5 -47.5q-147 0 -270 53.5t-211 153.5t-136.5 243.5t-48.5 323.5zM242 735 q0 -156 38.5 -276.5t110.5 -204.5t171.5 -128t221.5 -44q125 0 228.5 49t189.5 156v895q-160 209 -416 209q-123 0 -223 -44t-172 -129t-110.5 -207t-38.5 -276z" />
<glyph unicode="&#x153;" horiz-adv-x="1914" d="M84 518q0 279 123 425.5t344 146.5q150 0 257 -67t163 -196q57 129 160.5 196t242.5 67q221 0 337 -136.5t116 -404.5v-43h-787v-14q0 -195 92.5 -303.5t245.5 -108.5q133 0 216 64.5t102 181.5h121q-27 -166 -142.5 -260.5t-302.5 -94.5q-143 0 -245.5 65.5 t-155.5 192.5q-53 -125 -157.5 -191.5t-256.5 -66.5q-227 0 -350 142.5t-123 404.5zM211 518q0 -211 90 -324.5t256 -113.5q164 0 257 116.5t93 331.5q0 217 -94 335t-256 118q-168 0 -257 -117t-89 -346zM1042 606h658q0 180 -87 277.5t-239 97.5q-141 0 -229 -97.5 t-103 -277.5z" />
<glyph unicode="&#x178;" horiz-adv-x="1146" d="M-14 1473h155l432 -697l433 697h155l-520 -826v-647h-135v647zM342 1698v162h141v-162h-141zM663 1698v162h141v-162h-141z" />
<glyph unicode="&#x2c6;" d="M236 1200l200 350h152l200 -350h-92l-184 264l-184 -264h-92z" />
<glyph unicode="&#x2dc;" d="M223 1260q23 90 73 136t122 46q31 0 53 -8l96 -33q16 -6 30.5 -8t25.5 -2q66 0 96 73h82q-53 -182 -191 -182q-29 0 -65 10l-96 31q-25 8 -54 8q-61 0 -92 -71h-80z" />
<glyph unicode="&#x2000;" horiz-adv-x="986" />
<glyph unicode="&#x2001;" horiz-adv-x="1972" />
<glyph unicode="&#x2002;" horiz-adv-x="986" />
<glyph unicode="&#x2003;" horiz-adv-x="1972" />
<glyph unicode="&#x2004;" horiz-adv-x="657" />
<glyph unicode="&#x2005;" horiz-adv-x="493" />
<glyph unicode="&#x2006;" horiz-adv-x="328" />
<glyph unicode="&#x2007;" horiz-adv-x="328" />
<glyph unicode="&#x2008;" horiz-adv-x="246" />
<glyph unicode="&#x2009;" horiz-adv-x="394" />
<glyph unicode="&#x200a;" horiz-adv-x="109" />
<glyph unicode="&#x2010;" horiz-adv-x="669" d="M80 473v121h495v-121h-495z" />
<glyph unicode="&#x2011;" horiz-adv-x="669" d="M80 473v121h495v-121h-495z" />
<glyph unicode="&#x2012;" horiz-adv-x="669" d="M80 473v121h495v-121h-495z" />
<glyph unicode="&#x2013;" d="M0 492v92h1024v-92h-1024z" />
<glyph unicode="&#x2014;" horiz-adv-x="2048" d="M0 492v100h2048v-100h-2048z" />
<glyph unicode="&#x2018;" horiz-adv-x="497" d="M180 1044v246q0 88 31 139.5t106 81.5v-77q-35 -25 -49 -56.5t-14 -79.5v-71h63v-183h-137z" />
<glyph unicode="&#x2019;" horiz-adv-x="497" d="M180 1004v79q35 25 49.5 55.5t14.5 78.5v71h-64v185h137v-248q0 -88 -30.5 -139.5t-106.5 -81.5z" />
<glyph unicode="&#x201a;" horiz-adv-x="497" d="M180 0v182h137v-245q0 -88 -30.5 -139.5t-106.5 -82.5v78q35 25 49.5 56.5t14.5 78.5v72h-64z" />
<glyph unicode="&#x201c;" horiz-adv-x="808" d="M180 1044v246q0 41 5 75t24 62q33 51 108 84v-77q-35 -23 -49 -54.5t-14 -81.5v-71h63v-183h-137zM492 1044v246q0 88 28.5 139.5t106.5 81.5v-77q-35 -23 -49.5 -54.5t-14.5 -81.5v-71h64v-183h-135z" />
<glyph unicode="&#x201d;" horiz-adv-x="808" d="M180 1004v79q35 23 49.5 53.5t14.5 80.5v71h-64v185h137v-248q0 -88 -29.5 -139.5t-107.5 -81.5zM492 1004v79q35 23 49 53.5t14 80.5v71h-63v185h135v-248q0 -88 -29 -139.5t-106 -81.5z" />
<glyph unicode="&#x201e;" horiz-adv-x="808" d="M180 0v182h137v-245q0 -88 -29.5 -139.5t-107.5 -82.5v78q35 23 49.5 54.5t14.5 80.5v72h-64zM492 0v182h135v-245q0 -88 -29 -139.5t-106 -82.5v78q35 23 49 54.5t14 80.5v72h-63z" />
<glyph unicode="&#x2022;" horiz-adv-x="1208" d="M307 762q0 61 23.5 114.5t63.5 93.5t94.5 63.5t115.5 23.5t114.5 -23.5t93.5 -63.5t63.5 -93.5t23.5 -114.5t-23.5 -114.5t-63.5 -94.5t-94 -64.5t-116 -23.5q-61 0 -115.5 23.5t-94.5 63.5t-62.5 94.5t-22.5 115.5z" />
<glyph unicode="&#x2026;" horiz-adv-x="2048" d="M274 0v182h136v-182h-136zM956 0v182h136v-182h-136zM1640 0v182h136v-182h-136z" />
<glyph unicode="&#x202f;" horiz-adv-x="394" />
<glyph unicode="&#x2039;" horiz-adv-x="466" d="M78 461v153l291 220v-134l-209 -163l209 -162v-133z" />
<glyph unicode="&#x203a;" horiz-adv-x="466" d="M98 242v133l209 162l-209 163v134l291 -220v-153z" />
<glyph unicode="&#x205f;" horiz-adv-x="493" />
<glyph unicode="&#x2122;" horiz-adv-x="1705" d="M274 1403v51h420v-51h-174v-479h-67v479h-179zM825 924v530h101l174 -440l162 440h102v-530h-59v479l-181 -479h-49l-190 479v-479h-60z" />
<glyph unicode="&#x25fc;" horiz-adv-x="1064" d="M0 0v1065h1065v-1065h-1065z" />
</font>
</defs>
</svg>
